HIERARCHY
ROOT Hips
{
  OFFSET 263.056 91.6644 -274.608
  CHANNELS 6 Xposition Yposition Zposition Zrotation Xrotation Yrotation
  JOINT LeftUpLeg
  {
    OFFSET 8.64259 1.95398 -2.38835
    CHANNELS 3 Zrotation Xrotation Yrotation
    JOINT LeftLeg
    {
      OFFSET 43.7702 0 0
      CHANNELS 3 Zrotation Xrotation Yrotation
      JOINT LeftFoot
      {
        OFFSET 40.6238 0 0
        CHANNELS 3 Zrotation Xrotation Yrotation
        JOINT LeftToeBase
        {
          OFFSET 12.7242 0 0
          CHANNELS 3 Zrotation Xrotation Yrotation
          End Site
          {
            OFFSET 0 0 0
          }
        }
      }
    }
  }
  JOINT RightUpLeg
  {
    OFFSET -8.2249 1.95398 -2.59336
    CHANNELS 3 Zrotation Xrotation Yrotation
    JOINT RightLeg
    {
      OFFSET 43.5653 0 0
      CHANNELS 3 Zrotation Xrotation Yrotation
      JOINT RightFoot
      {
        OFFSET 40.6238 0 0
        CHANNELS 3 Zrotation Xrotation Yrotation
        JOINT RightToeBase
        {
          OFFSET 12.7242 0 0
          CHANNELS 3 Zrotation Xrotation Yrotation
          End Site
          {
            OFFSET 0 0 0
          }
        }
      }
    }
  }
  JOINT Spine
  {
    OFFSET 0.165834 0.87714 6.61349
    CHANNELS 3 Zrotation Xrotation Yrotation
    JOINT Spine1
    {
      OFFSET 7.38963 1.71661e-005 0
      CHANNELS 3 Zrotation Xrotation Yrotation
      JOINT Spine2
      {
        OFFSET 11.9445 1.14441e-005 0
        CHANNELS 3 Zrotation Xrotation Yrotation
        JOINT Spine3
        {
          OFFSET 14.7254 4.19617e-005 0
          CHANNELS 3 Zrotation Xrotation Yrotation
          JOINT Spine4
          {
            OFFSET 10.9679 0 0
            CHANNELS 3 Zrotation Xrotation Yrotation
            JOINT RightShoulder
            {
              OFFSET 2.46616 -1.6653 3.69651
              CHANNELS 3 Zrotation Xrotation Yrotation
              JOINT RightArm
              {
                OFFSET 13.0012 0 0
                CHANNELS 3 Zrotation Xrotation Yrotation
                JOINT RightForeArm
                {
                  OFFSET 28.7848 1.52588e-005 0
                  CHANNELS 3 Zrotation Xrotation Yrotation
                  JOINT RightHand
                  {
                    OFFSET 26.5688 1.52588e-005 0
                    CHANNELS 3 Zrotation Xrotation Yrotation
                    End Site
                    {
                      OFFSET 0 0 0
                    }
                  }
                }
              }
            }
            JOINT LeftShoulder
            {
              OFFSET 2.38034 -1.29275 -3.7523
              CHANNELS 3 Zrotation Xrotation Yrotation
              JOINT LeftArm
              {
                OFFSET 16.3182 6.10352e-005 0
                CHANNELS 3 Zrotation Xrotation Yrotation
                JOINT LeftForeArm
                {
                  OFFSET 27.0901 0 0
                  CHANNELS 3 Zrotation Xrotation Yrotation
                  JOINT LeftHand
                  {
                    OFFSET 24.5451 1.52588e-005 0
                    CHANNELS 3 Zrotation Xrotation Yrotation
                    End Site
                    {
                      OFFSET 0 0 0
                    }
                  }
                }
              }
            }
            JOINT Neck
            {
              OFFSET 5.0226 -0.0266342 0
              CHANNELS 3 Zrotation Xrotation Yrotation
              JOINT Head
              {
                OFFSET 6.69364 2.86102e-005 0
                CHANNELS 3 Zrotation Xrotation Yrotation
                End Site
                {
                  OFFSET 0 0 0
                }
              }
            }
          }
        }
      }
    }
  }
}
MOTION
Frames:	18
Frame Time:	0.0416667
296.227 86.2565 208.101 88.1888 -54.5925 82.5688 -164.162 39.8055 91.6306 -44.8853 72.8125 -22.8204 65.9241 21.2072 48.1903 17.2856 -25.3299 26.2763 -172.164 23.33 88.4979 -73.1533 11.9533 -12.5886 71.8615 0.0340269 -1.8312 70.0484 3.98609 4.50629 0.0646136 8.02515 -89.651 10.8223 0.289882 0.667108 -0.848825 0.318946 0.653691 -23.3826 0.0759852 0.72338 -3.36999 0.0759914 0.723378 81.6539 -49.0384 -113.802 22.0313 -8.57167 21.2849 -15.2213 -5.34988 -68.0837 -15.4946 -1.12677 3.57362 -100.017 -42.3335 60.9367 -42.7438 3.40363 29.032 -11.1131 -12.1624 -56.1862 35.044 1.33028 -0.176032 10.1957 -0.729567 3.71698 0.599354 -1.5196 1.03499 
290.077 87.4099 204.221 87.7646 -53.6738 81.4831 -163.425 36.0542 89.3884 -54.5605 71.7536 -21.2441 62.733 26.4344 54.1345 16.4789 -27.0873 26.7592 -173.44 28.0155 89.0443 -70.4885 17.9291 -11.2218 77.1801 -3.77062 -3.44336 55.4934 4.22136 13.7487 -0.0951273 8.07499 -89.5792 10.7234 0.00457402 0.83642 -0.947817 0.0413766 0.835408 -23.481 -0.247014 0.79913 -3.46836 -0.247006 0.799127 80.3922 -49.9919 -115.316 22.931 -8.83512 21.6359 -13.3487 -9.31603 -57.6857 -13.4118 -1.05353 4.14157 -101.005 -42.9345 59.6675 -37.8418 2.99865 24.2188 -11.1176 -12.6306 -55.7847 37.5985 1.61702 0.325581 9.66139 -0.127789 3.81047 1.62829 -0.91236 1.38961 
285.362 88.5622 201.138 85.4424 -52.4969 80.5831 -163.443 32.4461 87.9319 -67.2244 65.5717 -15.4953 58.4748 29.796 59.3678 2.43038 -41.9327 15.779 -172.184 31.8065 90.3145 -68.4567 15.3206 -10.4454 76.301 -6.29379 -3.53592 47.0944 1.75642 7.13512 -0.203815 8.03605 -89.7576 10.8023 -0.293912 0.509492 -0.868689 -0.271194 0.521921 -23.4035 -0.433441 0.397609 -3.39086 -0.433441 0.397602 80.5876 -50.6681 -114.763 23.9653 -11.1234 21.3592 -11.0308 -14.474 -47.3096 -10.0702 -0.861623 4.50823 -103.404 -44.4263 56.6824 -31.6833 1.76575 19.0637 -9.30791 -11.3688 -56.6714 38.3841 1.75186 0.586901 11.6723 0.690808 4.4489 1.48448 -0.32415 1.6654 
281.021 90.5641 198.157 85.5871 -51.8237 81.785 -162.809 27.608 86.473 -77.8372 47.3546 -7.42739 60.4253 33.8481 53.2216 -57.0062 -62.4025 -32.6081 -172.099 32.7106 91.386 -62.5502 15.0322 -9.35308 68.9011 -5.5354 -2.8454 50.0755 2.00072 5.51221 -0.404522 8.08806 -89.8567 10.699 -0.739573 0.352371 -0.971794 -0.72336 0.384575 -23.5086 -0.811294 0.11379 -3.49594 -0.811284 0.113798 79.476 -51.4736 -116.075 25.0347 -13.02 21.9048 -6.58628 -17.0061 -39.4336 -2.9061 -0.37901 6.30413 -104.47 -44.7182 55.2311 -26.849 -0.564128 15.7377 -8.01751 -9.86478 -60.9429 38.3585 1.72291 0.497538 12.9858 2.04041 4.36697 0.584537 0.918425 0.893765 
276.458 92.7342 195.06 86.697 -51.7957 83.1694 -161.259 21.3991 87.0719 -79.4545 20.1973 -2.69071 86.7153 35.7717 13.6904 -103.434 -70.6134 -64.859 -171.353 32.9524 91.6775 -56.8451 12.0083 -8.62491 64.8666 -6.0062 -3.31291 46.4115 1.50343 4.54365 -0.59235 8.15103 -89.8624 10.574 -1.11642 0.373995 -1.09658 -1.0989 0.422764 -23.6356 -1.1772 0.0211219 -3.62293 -1.17722 0.0211231 78.4027 -52.0218 -117.405 26.699 -14.1185 23.8967 -6.71424 -21.5657 -35.9697 1.59197 -0.122342 4.47505 -104.243 -44.0488 55.2537 -24.5708 -4.31815 14.1813 -7.47721 -7.94043 -69.9062 35.114 2.50522 3.26965 11.0702 3.03041 4.63582 2.87634 1.92509 1.12997 
272.246 93.3153 191.911 84.8279 -52.5607 81.3801 -162.209 15.6875 87.5407 -73.5582 13.2635 -2.22324 102.34 34.4283 -5.83456 -151.443 -76.3758 -101.229 -169.883 35.4209 90.6333 -54.22 4.69549 -8.69812 62.223 -4.50704 -2.60693 43.8938 0.6861 -3.17123 -0.761303 8.08873 -89.6848 10.7008 -1.37084 0.752468 -0.96963 -1.33638 0.812073 -23.5101 -1.53358 0.305622 -3.49749 -1.53358 0.305615 77.6407 -53.2324 -117.999 27.9656 -14.9177 26.9105 -6.80047 -21.188 -37.5845 -5.82788 -0.556467 3.31552 -102.432 -43.5103 57.735 -22.6724 -8.50156 14.4624 -1.74322 -1.60969 -84.5408 34.7353 1.42217 0.106269 11.8047 4.3289 4.01749 2.80276 3.31597 1.34924 
267.823 93.5271 187.597 83.3094 -51.0607 81.4409 -164.605 13.1745 88.4603 -65.5548 19.8281 -2.79627 96.9852 37.8078 2.8498 160.984 -78.4253 -142 -172.363 39.2007 91.0472 -49.5691 7.68894 -7.10774 58.214 -1.91143 -1.0165 39.9713 0.852685 3.95296 -0.947207 8.10467 -89.7651 10.6708 -1.77813 0.628922 -0.999084 -1.74871 0.706583 -23.544 -1.88492 0.0652571 -3.53137 -1.88492 0.0652613 76.9274 -53.8135 -118.766 29.2975 -14.6016 30.1993 -4.63636 -14.1938 -41.7291 -8.12233 -0.575989 2.12333 -102.908 -43.0678 56.8075 -20.4877 -9.9793 15.0381 0.521012 -3.56819 -99.5384 36.564 2.94366 4.2351 10.8995 4.85486 4.2245 4.61823 3.82685 1.22039 
263.18 95.0405 183.004 80.7254 -52.4037 79.9963 -165.073 10.6029 88.3791 -53.5856 21.4101 -3.71587 90.7536 35.1968 6.99505 41.0522 -69.7235 92.473 -172.973 40.1803 90.9732 -39.9667 3.09592 -6.66588 55.3071 0.544024 0.59049 26.0462 -0.850822 7.22677 -0.811682 8.19021 -89.6893 10.4995 -1.47415 0.749377 -1.17088 -1.43974 0.813529 -23.7124 -1.63121 0.271595 -3.6998 -1.63121 0.271588 76.4459 -53.9963 -119.364 29.6817 -13.092 29.1186 -4.29388 -10.6865 -42.9632 -9.07768 -0.406163 -0.823502 -101.98 -42.1678 57.8142 -19.555 -10.1841 14.5785 5.89983 -3.06668 -109.319 30.2841 2.61306 4.79641 10.6205 5.28333 3.83478 5.82119 4.34714 1.13294 
259.085 97.8243 178.548 76.5606 -55.6961 77.2145 -168.69 9.23924 86.3478 -40.1869 13.6407 -3.3617 77.1133 23.4267 9.47223 23.7134 -17.4093 34.5582 -172.802 37.6277 90.9045 -26.2524 -8.74772 -6.6091 49.1106 4.11955 3.5827 22.862 -0.806067 3.82087 -0.432441 8.26623 -89.617 10.3434 -0.686205 0.820457 -1.32768 -0.649405 0.849863 -23.8631 -0.901029 0.576314 -3.85047 -0.901043 0.576311 76.3912 -54.5902 -119.192 28.0157 -13.1316 26.2571 -4.26944 -8.72502 -45.5464 -11.6347 -0.376108 -1.80616 -100.047 -42.1887 60.8273 -20.071 -6.37401 12.6748 9.15788 -5.0067 -111.651 27.4096 2.01824 3.54853 13.2332 5.63439 3.62618 4.6229 4.615 0.921903 
255.198 99.7642 174.219 72.238 -56.7732 75.0938 -174.151 11.8139 85.5574 -32.2562 9.53068 -0.848527 61.744 7.97156 9.77802 49.2764 24.0645 5.35715 -172.597 36.8199 91.2141 -25.2106 -14.5019 -6.7577 55.3315 2.44511 2.01035 35.1092 0.371553 2.96449 -0.177852 8.16042 -89.6041 10.553 -0.172258 0.80227 -1.11819 -0.136785 0.809075 -23.6518 -0.405403 0.713417 -3.63917 -0.405405 0.713423 75.2058 -55.0091 -120.656 26.864 -13.7414 25.5225 -4.7938 -6.46473 -53.7841 -14.0977 -0.709973 0.712548 -98.2515 -41.0771 63.1932 -22.2293 -1.26107 11.7481 8.95761 -5.7782 -108.245 29.5333 2.07284 3.27623 11.9425 5.28 2.27319 7.08082 4.7519 1.95745 
250.747 99.8947 169.997 72.1455 -56.9228 75.4426 -174.934 15.2026 86.3348 -31.6833 9.11068 -0.306811 58.5822 4.17317 8.60305 56.3581 29.0727 -2.5542 -172.969 35.6503 91.3508 -35.5985 -5.407 -7.34872 63.4179 -0.834209 -0.398395 41.2202 0.867864 2.21389 -0.0352549 8.09145 -89.6024 10.6899 0.113046 0.780174 -0.981244 0.147273 0.774442 -23.5145 -0.126651 0.778082 -3.50189 -0.126655 0.778074 75.6921 -54.3495 -120.265 26.2713 -13.192 23.4688 -5.34747 -4.85025 -58.1627 -16.2531 -0.840708 0.940155 -98.9726 -40.9495 61.9934 -23.9529 1.55968 13.1345 9.80566 -4.97523 -101.457 27.8083 2.46238 5.14724 11.1928 5.38391 3.06491 5.80251 4.58576 0.716716 
245.968 99.6467 165.658 75.3188 -56.2941 78.239 -173.843 19.3607 87.3873 -35.0423 9.29634 -0.830368 61.2826 5.81575 8.7399 49.3475 22.1273 -1.80329 -175.672 32.0377 90.7548 -47.4833 3.86362 -5.80788 66.1285 -2.94714 -1.61991 41.2487 0.894339 2.77075 0.0351056 8.08935 -89.6079 10.6937 0.250579 0.756551 -0.977442 0.28364 0.744789 -23.5108 0.0116228 0.796881 -3.49819 0.0116288 0.796882 78.4559 -53.386 -116.781 26.2831 -13.9542 19.7421 -5.22995 -3.51909 -61.5413 -19.336 -0.931642 0.555707 -99.6479 -41.218 61.0357 -26.2997 3.67121 15.2603 10.1391 -3.86432 -90.5607 29.4955 1.45027 1.01476 10.5353 5.17574 3.77657 4.61907 4.12917 -0.581687 
241.28 98.2582 161.436 78.4297 -55.4369 80.7178 -174.084 24.4342 88.4986 -39.7428 13.8791 -0.950672 58.7467 3.26648 10.1549 52.8924 24.6557 -5.43781 -178.174 27.9678 89.7726 -59.5617 6.6393 -5.29368 64.8687 -3.3905 -1.9023 47.8428 1.50252 3.14604 0.0447668 8.08914 -89.5588 10.6937 0.292444 0.850478 -0.977489 0.329604 0.836771 -23.5104 0.0233252 0.899047 -3.49779 0.0233234 0.899043 77.9167 -52.9972 -117.704 24.996 -12.899 16.9454 -7.22961 -3.66401 -65.2494 -20.6025 -1.13232 1.40983 -99.5575 -41.4109 61.2616 -29.1233 3.90905 17.3104 9.35838 -1.8922 -80.9756 30.4175 1.61659 1.42761 9.69258 4.89476 3.73327 4.97803 3.81036 -1.76525 
237.052 96.5876 157.588 81.916 -55.5746 83.3554 -174.5 27.7058 89.3056 -42.5112 17.2441 -0.986971 57.8333 2.35558 11.2105 51.4015 23.9849 -2.73379 -179.407 21.5011 88.3567 -67.1604 5.24959 -5.93241 63.2704 -3.33654 -1.90524 46.9258 1.74513 6.32265 0.35302 8.21175 -89.5511 10.4468 0.909032 0.811215 -1.22407 0.943867 0.77041 -23.7586 0.623199 1.0469 -3.74599 0.623218 1.04689 78.7357 -51.801 -117.019 24.0493 -12.0787 14.6183 -9.02021 -2.44547 -70.7229 -23.1923 -1.30294 1.62591 -100.228 -41.65 60.3117 -32.3559 5.83475 18.0554 0.978716 -3.48783 -68.0097 33.0476 2.64755 4.20428 13.0773 4.81273 3.36443 0.955775 3.8054 -0.715798 
233.149 95.0648 153.806 85.7986 -55.3028 86.1882 -175.163 29.0151 89.2571 -42.7731 17.872 -0.640662 57.9006 2.77663 12.697 49.7281 21.5044 -5.65316 -179.931 13.2419 86.2407 -69.4837 2.76588 -7.15968 59.119 -1.99707 -1.18384 47.2878 2.0074 8.46153 0.602218 8.22596 -89.7131 10.419 1.3312 0.453727 -1.25129 1.34987 0.394672 -23.79 1.13328 0.83286 -3.77735 1.13329 0.832862 82.4623 -45.2752 -114.027 28.0445 -13.4797 12.9939 -13.337 -1.30921 -77.1184 -24.0124 -1.20076 1.0117 -102.137 -42.7383 57.8341 -36.3674 7.26301 21.5747 0.784218 -1.62662 -57.404 35.4825 2.4864 3.14302 11.4324 3.73298 7.31688 0.790357 1.75331 -4.32069 
228.7 94.6671 149.887 88.8862 -56.2057 87.7243 -174.797 29.4505 89.2653 -39.4137 14.9709 -0.790383 55.7505 0.00833296 9.2815 49.07 20.0532 -9.05342 -179.783 4.62795 83.7477 -65.6587 -0.162626 -9.28796 61.9962 -2.50286 -1.48024 44.8078 1.31765 4.3874 0.84102 8.05591 -89.5695 10.7578 1.87331 0.682119 -0.911911 1.90151 0.59898 -23.454 1.58168 1.21368 -3.44132 1.58168 1.21368 82.797 -43.7772 -114.089 28.3691 -16.7424 12.8688 -15.7742 1.29906 -84.0308 -21.5329 -1.55511 3.62563 -101.076 -42.4422 59.3389 -42.5521 8.22923 29.6893 -0.962697 -2.16277 -57.4435 37.3075 2.32374 2.31348 8.48454 3.28893 5.1228 -0.135395 2.03932 -2.67534 
223.861 96.2829 145.59 89.9138 -57.0978 88.8685 -174.786 27.5291 91.0319 -28.464 15.3306 -0.723707 51.1692 -4.52943 4.56969 40.9169 12.5754 -7.90022 -179.411 -0.349232 84.2545 -56.4404 0.734684 -11.1349 60.7746 -1.46552 -0.797334 46.9386 2.13326 10.4231 1.22125 7.97477 -89.7102 10.9225 2.56553 0.334006 -0.745872 2.57776 0.220679 -23.2984 2.34649 1.09002 -3.28574 2.34649 1.09001 82.9146 -42.0131 -114.628 27.8326 -19.0392 13.656 -18.3277 2.67131 -88.3223 -21.2064 -1.69318 4.57971 -100.414 -42.6064 60.4368 -47.0478 8.26448 35.0054 -2.24525 -2.91891 -60.157 37.2666 2.22345 2.04454 5.08445 1.19111 7.34845 1.74145 -0.403464 -5.09087 
217.999 98.2735 140.663 88.319 -56.7307 88.5684 -175.929 24.3803 93.3849 -10.8442 16.0815 0.484687 41.9801 -12.0367 -3.73641 32.7699 4.58586 -2.50668 -178.342 -0.78173 86.3329 -49.9442 -6.39641 -11.3952 60.1131 -0.681345 -0.321131 49.4256 2.45113 9.86621 1.40692 7.8876 -89.8223 11.1007 2.88306 0.0746456 -0.566997 2.88355 -0.0524307 -23.1259 2.72723 0.938317 -3.11321 2.72723 0.938316 82.7521 -43.3428 -114.341 25.8954 -20.5836 12.9752 -20.1025 3.48853 -89.4648 -20.4979 -1.57008 4.22996 -98.2957 -42.0574 63.5221 -49.4673 7.55567 37.0904 -4.59898 -4.63873 -61.9305 36.6446 1.84537 1.09955 4.28821 0.451492 6.91586 0.846808 -0.927631 -4.17016 
